<?xml version="1.0" encoding="utf-8"?>
<!-- Generator: Adobe Illustrator 16.0.0, SVG Export Plug-In . SVG Version: 6.00 Build 0)  -->
<!DOCTYPE svg PUBLIC "-//W3C//DTD SVG 1.1//EN" "http://www.w3.org/Graphics/SVG/1.1/DTD/svg11.dtd">
<svg version="1.1" id="Layer_1" xmlns="http://www.w3.org/2000/svg" xmlns:xlink="http://www.w3.org/1999/xlink" x="0px" y="0px"
	 width="100.0009766px" height="18px" viewBox="0 0 100.0009766 18" enable-background="new 0 0 100.0009766 18"
	 xml:space="preserve">
<g>
	<polygon fill="#0378A9" points="0.6293945,12.7382813 1.0761719,12.7382813 1.0761719,14.3349609 3.0878906,14.3349609 
		3.0878906,12.7382813 3.534668,12.7382813 3.534668,16.5058594 3.0878906,16.5058594 3.0878906,14.75 1.0761719,14.75 
		1.0761719,16.5058594 0.6293945,16.5058594 0.6293945,12.7382813 	"/>
	<path fill="#0378A9" d="M6.2119141,15.0371094c-0.0073242-0.2128906-0.0766602-0.3828125-0.2075195-0.5107422
		c-0.1313477-0.1279297-0.3125-0.1914063-0.5429688-0.1914063c-0.230957,0-0.4169922,0.0634766-0.559082,0.1914063
		c-0.1416016,0.1279297-0.2270508,0.2978516-0.2553711,0.5107422H6.2119141L6.2119141,15.0371094z M6.5683594,16.0537109
		c-0.1489258,0.1914063-0.3125,0.3251953-0.4897461,0.4013672s-0.3828125,0.1142578-0.6171875,0.1142578
		c-0.1953125,0-0.3710938-0.0341797-0.5268555-0.1035156c-0.15625-0.0683594-0.2880859-0.1621094-0.3964844-0.2792969
		s-0.1914063-0.2548828-0.25-0.4150391c-0.0585938-0.1591797-0.0878906-0.3300781-0.0878906-0.5107422
		c0-0.1914063,0.0317383-0.3681641,0.0957031-0.5292969c0.0639648-0.1621094,0.1523438-0.2998047,0.2661133-0.4150391
		c0.1132813-0.1152344,0.2480469-0.2050781,0.4042969-0.2695313c0.15625-0.0634766,0.3266602-0.0957031,0.5112305-0.0957031
		c0.1738281,0,0.3334961,0.0292969,0.4785156,0.0878906c0.1455078,0.0585938,0.2705078,0.1435547,0.3754883,0.2558594
		c0.1044922,0.1113281,0.1850586,0.2480469,0.2421875,0.4091797c0.0566406,0.1621094,0.0849609,0.3457031,0.0849609,0.5517578
		v0.1328125H4.6469727c0.0073242,0.1064453,0.0327148,0.2080078,0.0771484,0.3056641s0.1020508,0.1826172,0.1733398,0.2558594
		c0.0708008,0.0722656,0.1542969,0.1298828,0.25,0.1728516c0.0957031,0.0419922,0.2001953,0.0634766,0.3139648,0.0634766
		c0.1806641,0,0.3334961-0.0322266,0.4575195-0.0957031s0.2358398-0.1582031,0.3354492-0.2822266L6.5683594,16.0537109
		L6.5683594,16.0537109z"/>
	<path fill="#0378A9" d="M8.4204102,15.3085938c-0.2661133,0-0.4775391,0.0371094-0.6333008,0.1123047
		c-0.15625,0.0742188-0.234375,0.1962891-0.234375,0.3662109c0,0.15625,0.0522461,0.2675781,0.1572266,0.3330078
		C7.8144531,16.1855469,7.9448242,16.21875,8.1010742,16.21875c0.1206055,0,0.2260742-0.0205078,0.3164063-0.0615234
		c0.0908203-0.0410156,0.1660156-0.0947266,0.2260742-0.1621094C8.7041016,15.9277344,8.75,15.8486328,8.7822266,15.7578125
		c0.0317383-0.0898438,0.0498047-0.1865234,0.0532227-0.2900391v-0.1591797H8.4204102L8.4204102,15.3085938z M7.2177734,14.3349609
		c0.1274414-0.1318359,0.2792969-0.2285156,0.4545898-0.2900391c0.1757813-0.0625,0.3540039-0.09375,0.5351563-0.09375
		c0.3686523,0,0.6347656,0.0869141,0.7978516,0.2607422c0.1635742,0.1738281,0.2451172,0.4384766,0.2451172,0.7929688v1.0703125
		c0,0.0712891,0.003418,0.1445313,0.0107422,0.2207031c0.0068359,0.0761719,0.015625,0.1464844,0.0263672,0.2099609H8.8886719
		c-0.0141602-0.0566406-0.0224609-0.1191406-0.0239258-0.1884766c-0.0019531-0.0693359-0.0029297-0.1308594-0.0029297-0.1835938
		H8.8510742c-0.081543,0.1269531-0.1904297,0.2324219-0.3271484,0.3134766
		c-0.1367188,0.0820313-0.3007813,0.1220703-0.4921875,0.1220703c-0.1274414,0-0.2475586-0.015625-0.359375-0.046875
		c-0.1118164-0.0322266-0.2094727-0.0791016-0.2924805-0.1416016c-0.0834961-0.0625-0.1499023-0.1396484-0.199707-0.2314453
		S7.105957,15.9511719,7.105957,15.8300781c0-0.2060547,0.0532227-0.3671875,0.159668-0.484375
		s0.2382813-0.2041016,0.3964844-0.2607422c0.1577148-0.0566406,0.3276367-0.0917969,0.5107422-0.1064453
		c0.1826172-0.0136719,0.3500977-0.0214844,0.5029297-0.0214844h0.159668v-0.0742188
		c0-0.1806641-0.0541992-0.3173828-0.1625977-0.4101563c-0.1079102-0.0917969-0.2597656-0.1376953-0.4545898-0.1376953
		c-0.1352539,0-0.2670898,0.0224609-0.3964844,0.0664063c-0.1298828,0.0439453-0.2441406,0.1123047-0.3432617,0.2050781
		L7.2177734,14.3349609L7.2177734,14.3349609z"/>
	<polygon fill="#0378A9" points="9.9956055,12.4824219 10.4106445,12.4824219 10.4106445,16.5058594 9.9956055,16.5058594 
		9.9956055,12.4824219 	"/>
	<path fill="#0378A9" d="M12.5498047,14.3671875h-0.734375v1.2451172c0,0.0810547,0.0019531,0.15625,0.0053711,0.2255859
		s0.0175781,0.1298828,0.0424805,0.1806641c0.0249023,0.0517578,0.0620117,0.0927734,0.1118164,0.1230469
		s0.1206055,0.0449219,0.2128906,0.0449219c0.0600586,0,0.1225586-0.0068359,0.1860352-0.0214844
		c0.0639648-0.0136719,0.1245117-0.0351563,0.1811523-0.0634766l0.0161133,0.3779297
		C12.5,16.5117188,12.4213867,16.5341797,12.3344727,16.5488281c-0.0869141,0.0136719-0.1694336,0.0205078-0.2475586,0.0205078
		c-0.1489258,0-0.2680664-0.0185547-0.3564453-0.0576172c-0.0888672-0.0390625-0.1582031-0.0947266-0.2075195-0.1650391
		c-0.0498047-0.0712891-0.0825195-0.1591797-0.0986328-0.2636719s-0.0239258-0.2207031-0.0239258-0.3486328v-1.3671875h-0.5429688
		V14.015625h0.5429688v-0.7080078h0.4150391v0.7080078h0.734375V14.3671875L12.5498047,14.3671875z"/>
	<path fill="#0378A9" d="M13.0126953,12.4824219h0.4150391v1.8789063h0.0107422
		c0.0283203-0.0498047,0.0673828-0.0986328,0.1171875-0.1464844c0.0493164-0.0478516,0.1088867-0.0908203,0.1782227-0.1298828
		s0.1464844-0.0712891,0.2314453-0.0966797c0.0849609-0.0244141,0.175293-0.0371094,0.2714844-0.0371094
		c0.1630859,0,0.3041992,0.0253906,0.4228516,0.0751953c0.1191406,0.0498047,0.2172852,0.1191406,0.2954102,0.2070313
		c0.078125,0.0888672,0.1357422,0.1962891,0.1728516,0.3222656c0.0375977,0.1259766,0.0561523,0.2636719,0.0561523,0.4121094
		v1.5380859H14.769043v-1.4951172c0-0.2099609-0.0463867-0.3740234-0.1386719-0.4951172
		c-0.0922852-0.1201172-0.2358398-0.1806641-0.4311523-0.1806641c-0.1347656,0-0.2509766,0.0224609-0.3481445,0.0693359
		c-0.0976563,0.0458984-0.1777344,0.1113281-0.2397461,0.1962891s-0.1083984,0.1865234-0.1381836,0.3037109
		c-0.0302734,0.1171875-0.0454102,0.2460938-0.0454102,0.3886719v1.2128906h-0.4150391V12.4824219L13.0126953,12.4824219z"/>
	<polygon fill="#0378A9" points="17.4189453,12.7382813 19.7871094,12.7382813 19.7871094,13.1533203 17.8662109,13.1533203 
		17.8662109,14.3349609 19.659668,14.3349609 19.659668,14.75 17.8662109,14.75 17.8662109,16.0908203 19.8833008,16.0908203 
		19.8833008,16.5058594 17.4189453,16.5058594 17.4189453,12.7382813 	"/>
	<path fill="#0378A9" d="M20.4472656,14.6064453c0-0.1142578-0.0039063-0.2207031-0.0107422-0.3193359
		c-0.0073242-0.0996094-0.0107422-0.1904297-0.0107422-0.2714844h0.394043c0,0.0673828,0.0014648,0.1347656,0.0053711,0.2021484
		c0.003418,0.0673828,0.0053711,0.1367188,0.0053711,0.2070313h0.0102539
		c0.0283203-0.0595703,0.0683594-0.1181641,0.1201172-0.1748047c0.0512695-0.0566406,0.1123047-0.1074219,0.1835938-0.1523438
		c0.0708008-0.0439453,0.1503906-0.0800781,0.2392578-0.1064453c0.0883789-0.0263672,0.1845703-0.0400391,0.2875977-0.0400391
		c0.1625977,0,0.3041992,0.0253906,0.4228516,0.0751953s0.2172852,0.1191406,0.2954102,0.2070313
		c0.078125,0.0888672,0.1357422,0.1962891,0.1728516,0.3222656s0.0556641,0.2636719,0.0556641,0.4121094v1.5380859H22.203125
		v-1.4951172c0-0.2099609-0.0458984-0.3740234-0.1381836-0.4951172c-0.0922852-0.1201172-0.2358398-0.1806641-0.4311523-0.1806641
		c-0.1347656,0-0.2509766,0.0224609-0.3486328,0.0693359c-0.0976563,0.0458984-0.1772461,0.1113281-0.2392578,0.1962891
		s-0.1083984,0.1865234-0.1386719,0.3037109c-0.0297852,0.1171875-0.0449219,0.2460938-0.0449219,0.3886719v1.2128906h-0.4150391
		V14.6064453L20.4472656,14.6064453z"/>
	<path fill="#0378A9" d="M23.65625,15.2607422c0,0.1279297,0.0229492,0.2451172,0.0693359,0.3535156
		c0.0458984,0.1083984,0.1088867,0.2021484,0.1889648,0.2822266c0.0795898,0.0800781,0.1728516,0.1425781,0.2792969,0.1894531
		c0.1064453,0.0458984,0.2197266,0.0683594,0.340332,0.0683594c0.1420898,0,0.2680664-0.0244141,0.3779297-0.0742188
		s0.203125-0.1162109,0.2792969-0.1992188s0.1342773-0.1796875,0.1733398-0.2880859
		c0.0385742-0.1074219,0.0585938-0.2216797,0.0585938-0.3427734c0-0.1347656-0.0214844-0.2578125-0.0644531-0.3701172
		c-0.0424805-0.1113281-0.1025391-0.2080078-0.1806641-0.2900391c-0.078125-0.0810547-0.1723633-0.1445313-0.2822266-0.1884766
		s-0.2304688-0.0664063-0.3618164-0.0664063s-0.2509766,0.0234375-0.3588867,0.0712891
		c-0.1083984,0.0478516-0.2006836,0.1142578-0.2768555,0.1972656c-0.0766602,0.0830078-0.1357422,0.1806641-0.1782227,0.2929688
		C23.6772461,15.0078125,23.65625,15.1298828,23.65625,15.2607422L23.65625,15.2607422z M25.8383789,16.3945313
		c0,0.4541016-0.1166992,0.7988281-0.3486328,1.0351563c-0.2324219,0.2353516-0.5688477,0.3535156-1.0087891,0.3535156
		c-0.2446289,0-0.465332-0.0351563-0.6625977-0.1064453c-0.1967773-0.0712891-0.3837891-0.1933594-0.5615234-0.3671875
		l0.2983398-0.3408203c0.1313477,0.1425781,0.2705078,0.2490234,0.4179688,0.3222656
		c0.1469727,0.0722656,0.3164063,0.109375,0.5078125,0.109375c0.1845703,0,0.3378906-0.0283203,0.4604492-0.0830078
		s0.2192383-0.1289063,0.2900391-0.2236328c0.0708008-0.09375,0.1206055-0.2011719,0.1489258-0.3212891
		c0.0283203-0.1210938,0.0429688-0.2470703,0.0429688-0.3779297v-0.3193359h-0.0112305
		c-0.0991211,0.1591797-0.2285156,0.2763672-0.3881836,0.3505859c-0.159668,0.0751953-0.3227539,0.1123047-0.4897461,0.1123047
		c-0.1948242,0-0.3740234-0.0322266-0.5371094-0.0957031c-0.1635742-0.0644531-0.3037109-0.1523438-0.4204102-0.2666016
		c-0.1171875-0.1132813-0.2075195-0.2480469-0.2714844-0.4042969s-0.0957031-0.3261719-0.0957031-0.5107422
		c0-0.2021484,0.0317383-0.3847656,0.0957031-0.5478516s0.1533203-0.3007813,0.2685547-0.4130859
		c0.1152344-0.1113281,0.2543945-0.1972656,0.4174805-0.2578125c0.1635742-0.0605469,0.3442383-0.0908203,0.5429688-0.0908203
		c0.0849609,0,0.1704102,0.0097656,0.2558594,0.0292969C24.875,14,24.9575195,14.0302734,25.0371094,14.0712891
		c0.0800781,0.0410156,0.1518555,0.0917969,0.2158203,0.1542969c0.0634766,0.0625,0.1166992,0.1337891,0.1591797,0.2158203
		h0.0112305V14.015625h0.4150391V16.3945313L25.8383789,16.3945313z"/>
	<path fill="#0378A9" d="M27.7216797,15.3085938c-0.265625,0-0.4770508,0.0371094-0.6328125,0.1123047
		c-0.15625,0.0742188-0.234375,0.1962891-0.234375,0.3662109c0,0.15625,0.0522461,0.2675781,0.1572266,0.3330078
		c0.1044922,0.0654297,0.2348633,0.0986328,0.3911133,0.0986328c0.1206055,0,0.2260742-0.0205078,0.3164063-0.0615234
		s0.1660156-0.0947266,0.2260742-0.1621094c0.0605469-0.0673828,0.1064453-0.1464844,0.1386719-0.2373047
		c0.0317383-0.0898438,0.0493164-0.1865234,0.0532227-0.2900391v-0.1591797H27.7216797L27.7216797,15.3085938z
		 M26.519043,14.3349609c0.1279297-0.1318359,0.2797852-0.2285156,0.4550781-0.2900391
		c0.1757813-0.0625,0.3540039-0.09375,0.5351563-0.09375c0.3686523,0,0.6347656,0.0869141,0.7978516,0.2607422
		c0.1635742,0.1738281,0.2451172,0.4384766,0.2451172,0.7929688v1.0703125c0,0.0712891,0.003418,0.1445313,0.0107422,0.2207031
		c0.0068359,0.0761719,0.015625,0.1464844,0.0263672,0.2099609h-0.3989258
		c-0.0146484-0.0566406-0.0224609-0.1191406-0.0244141-0.1884766c-0.0014648-0.0693359-0.0024414-0.1308594-0.0024414-0.1835938
		H28.152832c-0.081543,0.1269531-0.1904297,0.2324219-0.3271484,0.3134766
		c-0.1367188,0.0820313-0.3007813,0.1220703-0.4921875,0.1220703c-0.1279297,0-0.2475586-0.015625-0.359375-0.046875
		c-0.1118164-0.0322266-0.2089844-0.0791016-0.2924805-0.1416016s-0.1499023-0.1396484-0.199707-0.2314453
		s-0.0742188-0.1982422-0.0742188-0.3193359c0-0.2060547,0.0532227-0.3671875,0.159668-0.484375
		c0.105957-0.1171875,0.2382813-0.2041016,0.3964844-0.2607422c0.1577148-0.0566406,0.3276367-0.0917969,0.5107422-0.1064453
		c0.1826172-0.0136719,0.3500977-0.0214844,0.5029297-0.0214844h0.159668v-0.0742188
		c0-0.1806641-0.0541992-0.3173828-0.1625977-0.4101563c-0.1079102-0.0917969-0.2597656-0.1376953-0.4545898-0.1376953
		c-0.1352539,0-0.2670898,0.0224609-0.3969727,0.0664063c-0.1293945,0.0439453-0.2436523,0.1123047-0.3432617,0.2050781
		L26.519043,14.3349609L26.519043,14.3349609z"/>
	<path fill="#0378A9" d="M29.5634766,15.2607422c0,0.1279297,0.0229492,0.2451172,0.0688477,0.3535156
		c0.0463867,0.1083984,0.109375,0.2021484,0.1889648,0.2822266c0.0800781,0.0800781,0.1728516,0.1425781,0.2797852,0.1894531
		c0.1064453,0.0458984,0.2197266,0.0683594,0.340332,0.0683594c0.1416016,0,0.2680664-0.0244141,0.3779297-0.0742188
		s0.2026367-0.1162109,0.2792969-0.1992188c0.0761719-0.0830078,0.1337891-0.1796875,0.1728516-0.2880859
		c0.0390625-0.1074219,0.0585938-0.2216797,0.0585938-0.3427734c0-0.1347656-0.0214844-0.2578125-0.0639648-0.3701172
		c-0.0424805-0.1113281-0.1025391-0.2080078-0.1806641-0.2900391c-0.078125-0.0810547-0.171875-0.1445313-0.2822266-0.1884766
		c-0.1098633-0.0439453-0.2304688-0.0664063-0.3618164-0.0664063s-0.2509766,0.0234375-0.3588867,0.0712891
		c-0.1083984,0.0478516-0.2006836,0.1142578-0.2768555,0.1972656s-0.1357422,0.1806641-0.1782227,0.2929688
		C29.5849609,15.0078125,29.5634766,15.1298828,29.5634766,15.2607422L29.5634766,15.2607422z M31.7451172,16.3945313
		c0,0.4541016-0.1162109,0.7988281-0.3481445,1.0351563c-0.2324219,0.2353516-0.5688477,0.3535156-1.0087891,0.3535156
		c-0.2446289,0-0.4658203-0.0351563-0.6625977-0.1064453s-0.3842773-0.1933594-0.5615234-0.3671875l0.2983398-0.3408203
		c0.1308594,0.1425781,0.2705078,0.2490234,0.4174805,0.3222656c0.1474609,0.0722656,0.3168945,0.109375,0.5083008,0.109375
		c0.1845703,0,0.3378906-0.0283203,0.4604492-0.0830078c0.1220703-0.0546875,0.21875-0.1289063,0.2900391-0.2236328
		c0.0708008-0.09375,0.1201172-0.2011719,0.1489258-0.3212891c0.0283203-0.1210938,0.0424805-0.2470703,0.0424805-0.3779297
		v-0.3193359h-0.0107422c-0.0991211,0.1591797-0.2285156,0.2763672-0.3881836,0.3505859
		c-0.159668,0.0751953-0.3227539,0.1123047-0.4897461,0.1123047c-0.1953125,0-0.3745117-0.0322266-0.5375977-0.0957031
		c-0.1630859-0.0644531-0.3032227-0.1523438-0.4204102-0.2666016c-0.1171875-0.1132813-0.2075195-0.2480469-0.2714844-0.4042969
		c-0.0634766-0.15625-0.0957031-0.3261719-0.0957031-0.5107422c0-0.2021484,0.0322266-0.3847656,0.0957031-0.5478516
		c0.0639648-0.1630859,0.1538086-0.3007813,0.269043-0.4130859c0.1152344-0.1113281,0.2543945-0.1972656,0.4179688-0.2578125
		c0.1625977-0.0605469,0.34375-0.0908203,0.5424805-0.0908203c0.0854492,0,0.1704102,0.0097656,0.2553711,0.0292969
		C30.7822266,14,30.8642578,14.0302734,30.9443359,14.0712891s0.1518555,0.0917969,0.215332,0.1542969
		c0.0639648,0.0625,0.1171875,0.1337891,0.159668,0.2158203h0.0107422V14.015625h0.4150391V16.3945313L31.7451172,16.3945313z"/>
	<path fill="#0378A9" d="M34.3261719,15.0371094c-0.0068359-0.2128906-0.0761719-0.3828125-0.2075195-0.5107422
		s-0.3120117-0.1914063-0.5429688-0.1914063c-0.2304688,0-0.4165039,0.0634766-0.5585938,0.1914063
		s-0.2270508,0.2978516-0.2553711,0.5107422H34.3261719L34.3261719,15.0371094z M34.6831055,16.0537109
		c-0.1494141,0.1914063-0.3125,0.3251953-0.4897461,0.4013672c-0.1777344,0.0761719-0.3833008,0.1142578-0.6176758,0.1142578
		c-0.1948242,0-0.3706055-0.0341797-0.5268555-0.1035156c-0.1557617-0.0683594-0.2880859-0.1621094-0.3959961-0.2792969
		c-0.1083984-0.1171875-0.1918945-0.2548828-0.25-0.4150391c-0.059082-0.1591797-0.0883789-0.3300781-0.0883789-0.5107422
		c0-0.1914063,0.0322266-0.3681641,0.0961914-0.5292969c0.0639648-0.1621094,0.1523438-0.2998047,0.265625-0.4150391
		c0.1137695-0.1152344,0.2485352-0.2050781,0.4047852-0.2695313c0.1557617-0.0634766,0.3266602-0.0957031,0.5107422-0.0957031
		c0.1738281,0,0.3334961,0.0292969,0.4790039,0.0878906s0.2705078,0.1435547,0.3754883,0.2558594
		c0.1044922,0.1113281,0.1850586,0.2480469,0.2421875,0.4091797c0.0561523,0.1621094,0.0849609,0.3457031,0.0849609,0.5517578
		v0.1328125h-2.0117188c0.0068359,0.1064453,0.0327148,0.2080078,0.0771484,0.3056641s0.1020508,0.1826172,0.1728516,0.2558594
		c0.0708008,0.0722656,0.1542969,0.1298828,0.25,0.1728516c0.0961914,0.0419922,0.2006836,0.0634766,0.3139648,0.0634766
		c0.1811523,0,0.3334961-0.0322266,0.4580078-0.0957031c0.1240234-0.0634766,0.2358398-0.1582031,0.3354492-0.2822266
		L34.6831055,16.0537109L34.6831055,16.0537109z"/>
	<path fill="#0378A9" d="M35.3642578,14.6064453c0-0.1142578-0.0039063-0.2207031-0.0107422-0.3193359
		c-0.0073242-0.0996094-0.0107422-0.1904297-0.0107422-0.2714844h0.394043c0,0.0673828,0.0014648,0.1347656,0.0048828,0.2021484
		c0.0039063,0.0673828,0.0053711,0.1367188,0.0053711,0.2070313h0.0107422
		c0.0283203-0.0595703,0.0683594-0.1181641,0.1196289-0.1748047s0.112793-0.1074219,0.1835938-0.1523438
		c0.0712891-0.0439453,0.1508789-0.0800781,0.2397461-0.1064453c0.0883789-0.0263672,0.1845703-0.0400391,0.2871094-0.0400391
		c0.1347656,0,0.2475586,0.0175781,0.3378906,0.0507813c0.0908203,0.0341797,0.1660156,0.0742188,0.2265625,0.1230469
		c0.0600586,0.0478516,0.1074219,0.0986328,0.140625,0.1542969c0.0341797,0.0546875,0.0615234,0.1035156,0.0825195,0.1455078
		c0.0922852-0.1484375,0.1987305-0.2646484,0.3193359-0.3486328c0.1206055-0.0830078,0.2768555-0.125,0.46875-0.125
		c0.1772461,0,0.3261719,0.0244141,0.4467773,0.0722656s0.2182617,0.1171875,0.2924805,0.2070313
		c0.074707,0.0908203,0.1279297,0.2011719,0.159668,0.3300781c0.0322266,0.1298828,0.0478516,0.2744141,0.0478516,0.4345703
		v1.5107422h-0.4150391V15.015625c0-0.0849609-0.0087891-0.1679688-0.0263672-0.25
		c-0.0175781-0.0810547-0.0498047-0.1542969-0.0957031-0.2177734c-0.0463867-0.0644531-0.1083984-0.1152344-0.1865234-0.1542969
		s-0.1772461-0.0585938-0.2978516-0.0585938c-0.0888672,0-0.1723633,0.0175781-0.25,0.0527344
		c-0.078125,0.0361328-0.1464844,0.0849609-0.2050781,0.1494141c-0.0585938,0.0634766-0.1044922,0.140625-0.1386719,0.2314453
		c-0.0332031,0.0908203-0.050293,0.1904297-0.050293,0.3007813v1.4365234h-0.4150391v-1.4101563
		c0-0.2763672-0.0371094-0.4726563-0.1118164-0.5878906c-0.0742188-0.1152344-0.1967773-0.1728516-0.3671875-0.1728516
		c-0.1347656,0-0.2509766,0.0224609-0.3486328,0.0693359c-0.0976563,0.0458984-0.1772461,0.1113281-0.2392578,0.1962891
		c-0.0625,0.0849609-0.1083984,0.1865234-0.1386719,0.3037109s-0.0449219,0.2460938-0.0449219,0.3886719v1.2128906h-0.4150391
		V14.6064453L35.3642578,14.6064453z"/>
	<path fill="#0378A9" d="M41.7128906,15.0371094c-0.0068359-0.2128906-0.0761719-0.3828125-0.2075195-0.5107422
		s-0.3125-0.1914063-0.5429688-0.1914063c-0.230957,0-0.4169922,0.0634766-0.5585938,0.1914063
		c-0.1420898,0.1279297-0.2270508,0.2978516-0.2553711,0.5107422H41.7128906L41.7128906,15.0371094z M42.0693359,16.0537109
		c-0.1494141,0.1914063-0.3125,0.3251953-0.4897461,0.4013672s-0.3828125,0.1142578-0.6171875,0.1142578
		c-0.1948242,0-0.3706055-0.0341797-0.5268555-0.1035156c-0.15625-0.0683594-0.2880859-0.1621094-0.3964844-0.2792969
		s-0.1914063-0.2548828-0.25-0.4150391c-0.0585938-0.1591797-0.0878906-0.3300781-0.0878906-0.5107422
		c0-0.1914063,0.0322266-0.3681641,0.0957031-0.5292969c0.0639648-0.1621094,0.152832-0.2998047,0.2661133-0.4150391
		c0.1137695-0.1152344,0.2485352-0.2050781,0.4042969-0.2695313c0.15625-0.0634766,0.3266602-0.0957031,0.5112305-0.0957031
		c0.1738281,0,0.3334961,0.0292969,0.4790039,0.0878906c0.1450195,0.0585938,0.2700195,0.1435547,0.3754883,0.2558594
		c0.1044922,0.1113281,0.1845703,0.2480469,0.2421875,0.4091797c0.0566406,0.1621094,0.0849609,0.3457031,0.0849609,0.5517578
		v0.1328125h-2.0117188c0.0068359,0.1064453,0.0322266,0.2080078,0.0771484,0.3056641
		c0.0439453,0.0976563,0.1015625,0.1826172,0.1728516,0.2558594c0.0708008,0.0722656,0.1542969,0.1298828,0.25,0.1728516
		c0.0957031,0.0419922,0.2006836,0.0634766,0.3139648,0.0634766c0.1811523,0,0.3334961-0.0322266,0.4580078-0.0957031
		c0.1240234-0.0634766,0.2358398-0.1582031,0.3354492-0.2822266L42.0693359,16.0537109L42.0693359,16.0537109z"/>
	<path fill="#0378A9" d="M42.7509766,14.6064453c0-0.1142578-0.0039063-0.2207031-0.0107422-0.3193359
		c-0.0078125-0.0996094-0.0107422-0.1904297-0.0107422-0.2714844h0.3935547c0,0.0673828,0.0019531,0.1347656,0.0048828,0.2021484
		c0.0039063,0.0673828,0.0058594,0.1367188,0.0058594,0.2070313h0.0107422
		c0.0283203-0.0595703,0.0683594-0.1181641,0.1191406-0.1748047c0.0517578-0.0566406,0.1132813-0.1074219,0.1845703-0.1523438
		c0.0703125-0.0439453,0.1503906-0.0800781,0.2392578-0.1064453c0.0878906-0.0263672,0.1845703-0.0400391,0.2871094-0.0400391
		c0.1630859,0,0.3037109,0.0253906,0.4228516,0.0751953s0.2177734,0.1191406,0.2958984,0.2070313
		c0.0771484,0.0888672,0.1357422,0.1962891,0.1728516,0.3222656s0.0556641,0.2636719,0.0556641,0.4121094v1.5380859h-0.4150391
		v-1.4951172c0-0.2099609-0.0458984-0.3740234-0.1386719-0.4951172c-0.0917969-0.1201172-0.2353516-0.1806641-0.4306641-0.1806641
		c-0.1347656,0-0.2509766,0.0224609-0.3486328,0.0693359c-0.0976563,0.0458984-0.1777344,0.1113281-0.2392578,0.1962891
		c-0.0625,0.0849609-0.1083984,0.1865234-0.1386719,0.3037109s-0.0449219,0.2460938-0.0449219,0.3886719v1.2128906h-0.4150391
		V14.6064453L42.7509766,14.6064453z"/>
	<path fill="#0378A9" d="M47.0185547,14.3671875h-0.734375v1.2451172c0,0.0810547,0.0019531,0.15625,0.0048828,0.2255859
		c0.0039063,0.0693359,0.0185547,0.1298828,0.0429688,0.1806641c0.0244141,0.0517578,0.0625,0.0927734,0.1123047,0.1230469
		c0.0488281,0.0302734,0.1201172,0.0449219,0.2119141,0.0449219c0.0605469,0,0.1230469-0.0068359,0.1865234-0.0214844
		c0.0644531-0.0136719,0.1240234-0.0351563,0.1816406-0.0634766l0.015625,0.3779297
		c-0.0712891,0.0322266-0.1503906,0.0546875-0.2373047,0.0693359c-0.0869141,0.0136719-0.1689453,0.0205078-0.2470703,0.0205078
		c-0.1494141,0-0.2675781-0.0185547-0.3564453-0.0576172s-0.1582031-0.0947266-0.2080078-0.1650391
		c-0.0498047-0.0712891-0.0820313-0.1591797-0.0976563-0.2636719c-0.0166016-0.1044922-0.0244141-0.2207031-0.0244141-0.3486328
		v-1.3671875h-0.5429688V14.015625h0.5429688v-0.7080078h0.4150391v0.7080078h0.734375V14.3671875L47.0185547,14.3671875z"/>
	<path fill="#0378A9" d="M50.0732422,15.3085938c-0.265625,0-0.4775391,0.0371094-0.6328125,0.1123047
		c-0.15625,0.0742188-0.234375,0.1962891-0.234375,0.3662109c0,0.15625,0.0517578,0.2675781,0.1572266,0.3330078
		c0.1044922,0.0654297,0.234375,0.0986328,0.390625,0.0986328c0.1210938,0,0.2265625-0.0205078,0.3164063-0.0615234
		c0.0908203-0.0410156,0.1660156-0.0947266,0.2265625-0.1621094s0.1064453-0.1464844,0.1386719-0.2373047
		c0.03125-0.0898438,0.0498047-0.1865234,0.0527344-0.2900391v-0.1591797H50.0732422L50.0732422,15.3085938z M48.8710938,14.3349609
		c0.1269531-0.1318359,0.2792969-0.2285156,0.4541016-0.2900391c0.1757813-0.0625,0.3544922-0.09375,0.5351563-0.09375
		c0.3691406,0,0.6347656,0.0869141,0.7988281,0.2607422c0.1630859,0.1738281,0.2441406,0.4384766,0.2441406,0.7929688v1.0703125
		c0,0.0712891,0.0039063,0.1445313,0.0107422,0.2207031s0.015625,0.1464844,0.0263672,0.2099609h-0.3984375
		c-0.0146484-0.0566406-0.0224609-0.1191406-0.0244141-0.1884766c-0.0009766-0.0693359-0.0019531-0.1308594-0.0019531-0.1835938
		h-0.0107422c-0.0820313,0.1269531-0.1914063,0.2324219-0.328125,0.3134766
		c-0.1367188,0.0820313-0.3007813,0.1220703-0.4921875,0.1220703c-0.1269531,0-0.2470703-0.015625-0.359375-0.046875
		c-0.1113281-0.0322266-0.2089844-0.0791016-0.2919922-0.1416016c-0.0839844-0.0625-0.1503906-0.1396484-0.2001953-0.2314453
		c-0.0488281-0.0917969-0.0742188-0.1982422-0.0742188-0.3193359c0-0.2060547,0.0527344-0.3671875,0.1601563-0.484375
		c0.1064453-0.1171875,0.2382813-0.2041016,0.3955078-0.2607422c0.1582031-0.0566406,0.328125-0.0917969,0.5117188-0.1064453
		c0.1826172-0.0136719,0.3505859-0.0214844,0.5029297-0.0214844h0.1591797v-0.0742188
		c0-0.1806641-0.0537109-0.3173828-0.1621094-0.4101563c-0.1083984-0.0917969-0.2597656-0.1376953-0.4550781-0.1376953
		c-0.1347656,0-0.2675781,0.0224609-0.3964844,0.0664063c-0.1298828,0.0439453-0.2441406,0.1123047-0.3427734,0.2050781
		L48.8710938,14.3349609L48.8710938,14.3349609z"/>
	<path fill="#0378A9" d="M51.6113281,14.6064453c0-0.1142578-0.0039063-0.2207031-0.0107422-0.3193359
		C51.59375,14.1875,51.5898438,14.0966797,51.5898438,14.015625h0.3945313c0,0.0673828,0.0009766,0.1347656,0.0048828,0.2021484
		s0.0048828,0.1367188,0.0048828,0.2070313h0.0107422C52.0341797,14.3652344,52.0732422,14.3066406,52.125,14.25
		s0.1123047-0.1074219,0.1835938-0.1523438c0.0703125-0.0439453,0.1503906-0.0800781,0.2392578-0.1064453
		s0.1845703-0.0400391,0.2871094-0.0400391c0.1630859,0,0.3046875,0.0253906,0.4238281,0.0751953
		c0.1181641,0.0498047,0.2167969,0.1191406,0.2949219,0.2070313c0.078125,0.0888672,0.1357422,0.1962891,0.1728516,0.3222656
		s0.0566406,0.2636719,0.0566406,0.4121094v1.5380859h-0.4160156v-1.4951172c0-0.2099609-0.0458984-0.3740234-0.1376953-0.4951172
		c-0.0927734-0.1201172-0.2363281-0.1806641-0.4316406-0.1806641c-0.1347656,0-0.2509766,0.0224609-0.3476563,0.0693359
		c-0.0986328,0.0458984-0.1777344,0.1113281-0.2402344,0.1962891s-0.1083984,0.1865234-0.1386719,0.3037109
		c-0.0292969,0.1171875-0.0449219,0.2460938-0.0449219,0.3886719v1.2128906h-0.4150391V14.6064453L51.6113281,14.6064453z"/>
	<path fill="#0378A9" d="M56.5869141,15.2607422c0-0.1308594-0.0205078-0.2529297-0.0615234-0.3642578
		c-0.0400391-0.1123047-0.0996094-0.2099609-0.1777344-0.2929688s-0.1708984-0.1494141-0.2792969-0.1972656
		s-0.2304688-0.0712891-0.3642578-0.0712891c-0.1357422,0-0.2568359,0.0234375-0.3652344,0.0712891
		c-0.1074219,0.0478516-0.2011719,0.1142578-0.2792969,0.1972656s-0.1376953,0.1806641-0.1777344,0.2929688
		c-0.0410156,0.1113281-0.0615234,0.2333984-0.0615234,0.3642578s0.0205078,0.2529297,0.0615234,0.3642578
		c0.0400391,0.1123047,0.0996094,0.2099609,0.1777344,0.2929688s0.171875,0.1484375,0.2792969,0.1972656
		c0.1083984,0.0478516,0.2294922,0.0712891,0.3652344,0.0712891c0.1337891,0,0.2558594-0.0234375,0.3642578-0.0712891
		c0.1083984-0.0488281,0.2011719-0.1142578,0.2792969-0.1972656s0.1376953-0.1806641,0.1777344-0.2929688
		C56.5664063,15.5136719,56.5869141,15.3916016,56.5869141,15.2607422L56.5869141,15.2607422z M56.5869141,16.0644531h-0.0107422
		c-0.078125,0.1416016-0.2011719,0.2617188-0.3691406,0.359375c-0.1689453,0.0976563-0.3652344,0.1455078-0.5888672,0.1455078
		c-0.1738281,0-0.3369141-0.0322266-0.4892578-0.0976563c-0.1523438-0.0664063-0.2851563-0.1572266-0.3964844-0.2744141
		s-0.1992188-0.2558594-0.2636719-0.4150391c-0.0634766-0.1591797-0.0957031-0.3330078-0.0957031-0.5214844
		s0.0322266-0.3623047,0.0957031-0.5214844c0.0644531-0.1601563,0.1533203-0.2978516,0.2666016-0.4150391
		s0.2509766-0.2089844,0.4121094-0.2744141c0.1621094-0.0654297,0.3398438-0.0986328,0.5351563-0.0986328
		c0.1806641,0,0.3466797,0.0371094,0.4970703,0.1123047c0.1513672,0.0742188,0.2832031,0.1787109,0.3964844,0.3134766h0.0107422
		v-1.8945313h0.4150391v4.0234375h-0.4150391V16.0644531L56.5869141,16.0644531z"/>
	<polygon fill="#0378A9" points="58.7802734,12.7382813 59.2744141,12.7382813 60.1308594,15.8671875 60.1416016,15.8671875 
		61.0683594,12.7382813 61.5683594,12.7382813 62.4892578,15.8671875 62.5,15.8671875 63.3720703,12.7382813 63.8408203,12.7382813 
		62.7333984,16.5058594 62.25,16.5058594 61.3183594,13.3125 61.3076172,13.3125 60.3710938,16.5058594 59.8818359,16.5058594 
		58.7802734,12.7382813 	"/>
	<path fill="#0378A9" d="M65.8310547,15.0371094c-0.0078125-0.2128906-0.0761719-0.3828125-0.2070313-0.5107422
		c-0.1318359-0.1279297-0.3125-0.1914063-0.5429688-0.1914063c-0.2314453,0-0.4169922,0.0634766-0.5585938,0.1914063
		c-0.1425781,0.1279297-0.2275391,0.2978516-0.2558594,0.5107422H65.8310547L65.8310547,15.0371094z M66.1875,16.0537109
		c-0.1494141,0.1914063-0.3125,0.3251953-0.4892578,0.4013672c-0.1777344,0.0761719-0.3837891,0.1142578-0.6171875,0.1142578
		c-0.1953125,0-0.3710938-0.0341797-0.5273438-0.1035156c-0.15625-0.0683594-0.2880859-0.1621094-0.3964844-0.2792969
		s-0.1914063-0.2548828-0.25-0.4150391c-0.0585938-0.1591797-0.0878906-0.3300781-0.0878906-0.5107422
		c0-0.1914063,0.0322266-0.3681641,0.0957031-0.5292969c0.0644531-0.1621094,0.1523438-0.2998047,0.2666016-0.4150391
		c0.1132813-0.1152344,0.2480469-0.2050781,0.4042969-0.2695313c0.15625-0.0634766,0.3261719-0.0957031,0.5107422-0.0957031
		c0.1738281,0,0.3330078,0.0292969,0.4794922,0.0878906c0.1445313,0.0585938,0.2695313,0.1435547,0.3740234,0.2558594
		c0.1044922,0.1113281,0.1855469,0.2480469,0.2431641,0.4091797c0.0556641,0.1621094,0.0849609,0.3457031,0.0849609,0.5517578
		v0.1328125h-2.0117188c0.0068359,0.1064453,0.0322266,0.2080078,0.0771484,0.3056641
		c0.0439453,0.0976563,0.1015625,0.1826172,0.1728516,0.2558594c0.0712891,0.0722656,0.1542969,0.1298828,0.25,0.1728516
		c0.0957031,0.0419922,0.2001953,0.0634766,0.3144531,0.0634766c0.1806641,0,0.3330078-0.0322266,0.4570313-0.0957031
		s0.2363281-0.1582031,0.3349609-0.2822266L66.1875,16.0537109L66.1875,16.0537109z"/>
	<polygon fill="#0378A9" points="66.90625,12.4824219 67.3212891,12.4824219 67.3212891,16.5058594 66.90625,16.5058594 
		66.90625,12.4824219 	"/>
	<polygon fill="#0378A9" points="68.1357422,12.4824219 68.5507813,12.4824219 68.5507813,16.5058594 68.1357422,16.5058594 
		68.1357422,12.4824219 	"/>
	<path fill="#0378A9" d="M69.3222656,14.6064453c0-0.1142578-0.0039063-0.2207031-0.0107422-0.3193359
		c-0.0078125-0.0996094-0.0107422-0.1904297-0.0107422-0.2714844h0.3935547c0,0.0673828,0.0019531,0.1347656,0.0058594,0.2021484
		c0.0029297,0.0673828,0.0048828,0.1367188,0.0048828,0.2070313h0.0107422
		c0.0283203-0.0595703,0.0683594-0.1181641,0.1191406-0.1748047c0.0517578-0.0566406,0.1132813-0.1074219,0.1845703-0.1523438
		c0.0703125-0.0439453,0.1503906-0.0800781,0.2392578-0.1064453s0.1845703-0.0400391,0.2871094-0.0400391
		c0.1630859,0,0.3046875,0.0253906,0.4238281,0.0751953c0.1181641,0.0498047,0.2167969,0.1191406,0.2949219,0.2070313
		c0.078125,0.0888672,0.1357422,0.1962891,0.1728516,0.3222656s0.0556641,0.2636719,0.0556641,0.4121094v1.5380859H71.078125
		v-1.4951172c0-0.2099609-0.0458984-0.3740234-0.1386719-0.4951172c-0.0917969-0.1201172-0.2353516-0.1806641-0.4306641-0.1806641
		c-0.1347656,0-0.2509766,0.0224609-0.3486328,0.0693359c-0.0976563,0.0458984-0.1777344,0.1113281-0.2392578,0.1962891
		c-0.0625,0.0849609-0.1083984,0.1865234-0.1386719,0.3037109s-0.0449219,0.2460938-0.0449219,0.3886719v1.2128906h-0.4150391
		V14.6064453L69.3222656,14.6064453z"/>
	<path fill="#0378A9" d="M74.0957031,15.0371094c-0.0068359-0.2128906-0.0761719-0.3828125-0.2070313-0.5107422
		c-0.1318359-0.1279297-0.3125-0.1914063-0.5429688-0.1914063c-0.2314453,0-0.4169922,0.0634766-0.5585938,0.1914063
		c-0.1425781,0.1279297-0.2275391,0.2978516-0.2558594,0.5107422H74.0957031L74.0957031,15.0371094z M74.4521484,16.0537109
		c-0.1484375,0.1914063-0.3125,0.3251953-0.4892578,0.4013672c-0.1777344,0.0761719-0.3837891,0.1142578-0.6171875,0.1142578
		c-0.1953125,0-0.3710938-0.0341797-0.5273438-0.1035156c-0.15625-0.0683594-0.2880859-0.1621094-0.3964844-0.2792969
		s-0.1914063-0.2548828-0.25-0.4150391c-0.0585938-0.1591797-0.0878906-0.3300781-0.0878906-0.5107422
		c0-0.1914063,0.0322266-0.3681641,0.0957031-0.5292969c0.0644531-0.1621094,0.1523438-0.2998047,0.2666016-0.4150391
		c0.1132813-0.1152344,0.2480469-0.2050781,0.4042969-0.2695313c0.15625-0.0634766,0.3261719-0.0957031,0.5107422-0.0957031
		c0.1738281,0,0.3339844,0.0292969,0.4785156,0.0878906c0.1455078,0.0585938,0.2714844,0.1435547,0.375,0.2558594
		c0.1054688,0.1113281,0.1855469,0.2480469,0.2431641,0.4091797c0.0556641,0.1621094,0.0849609,0.3457031,0.0849609,0.5517578
		v0.1328125H72.53125c0.0068359,0.1064453,0.0332031,0.2080078,0.0771484,0.3056641s0.1015625,0.1826172,0.1728516,0.2558594
		c0.0712891,0.0722656,0.1542969,0.1298828,0.25,0.1728516c0.0957031,0.0419922,0.2001953,0.0634766,0.3144531,0.0634766
		c0.1806641,0,0.3330078-0.0322266,0.4570313-0.0957031s0.2363281-0.1582031,0.3349609-0.2822266L74.4521484,16.0537109
		L74.4521484,16.0537109z"/>
	<path fill="#0378A9" d="M75.1865234,15.8515625c0.0810547,0.1025391,0.1708984,0.1845703,0.2685547,0.2451172
		c0.0976563,0.0595703,0.2207031,0.0898438,0.3701172,0.0898438c0.0634766,0,0.1289063-0.0068359,0.1943359-0.0214844
		c0.0654297-0.0136719,0.125-0.0371094,0.1787109-0.0683594c0.0527344-0.0322266,0.0947266-0.0722656,0.1269531-0.1201172
		s0.0478516-0.1054688,0.0478516-0.1728516s-0.0146484-0.1230469-0.0449219-0.1650391
		c-0.0302734-0.0429688-0.0703125-0.0791016-0.1201172-0.109375s-0.1064453-0.0537109-0.1699219-0.0712891
		c-0.0634766-0.0185547-0.1298828-0.0341797-0.1972656-0.0478516c-0.1171875-0.0253906-0.2285156-0.0537109-0.3349609-0.0859375
		c-0.1064453-0.03125-0.1992188-0.0732422-0.2792969-0.125C75.1464844,15.1484375,75.0830078,15.0820313,75.0351563,15
		c-0.0488281-0.0820313-0.0722656-0.1865234-0.0722656-0.3144531c0-0.1201172,0.0263672-0.2265625,0.0800781-0.3183594
		c0.0527344-0.0927734,0.1240234-0.1689453,0.2128906-0.2294922s0.1875-0.1064453,0.2978516-0.1386719
		c0.1103516-0.03125,0.2236328-0.0478516,0.3408203-0.0478516c0.1767578,0,0.3408203,0.0361328,0.4921875,0.1064453
		c0.1503906,0.0712891,0.2685547,0.1865234,0.3535156,0.3466797l-0.3457031,0.2285156
		c-0.0527344-0.0888672-0.1230469-0.1601563-0.2099609-0.2158203c-0.0869141-0.0546875-0.1923828-0.0820313-0.3164063-0.0820313
		c-0.0576172,0-0.1152344,0.0068359-0.1728516,0.0214844c-0.0585938,0.0136719-0.1113281,0.0351563-0.1572266,0.0634766
		c-0.046875,0.0283203-0.0849609,0.0644531-0.1142578,0.109375c-0.03125,0.0439453-0.0458984,0.0947266-0.0458984,0.1513672
		c0,0.0527344,0.0166016,0.0986328,0.0507813,0.1357422c0.0332031,0.0371094,0.0800781,0.0703125,0.1386719,0.0986328
		s0.1259766,0.0527344,0.2021484,0.0742188s0.1552734,0.0390625,0.2363281,0.0527344
		c0.1103516,0.0214844,0.2148438,0.0498047,0.3144531,0.0830078c0.0986328,0.0341797,0.1855469,0.0791016,0.2607422,0.1357422
		c0.0742188,0.0566406,0.1328125,0.1279297,0.1757813,0.2128906c0.0419922,0.0849609,0.0634766,0.1894531,0.0634766,0.3134766
		c0,0.1425781-0.0283203,0.2626953-0.0849609,0.3623047s-0.1318359,0.1796875-0.2265625,0.2421875
		c-0.09375,0.0625-0.2001953,0.1074219-0.3193359,0.1357422c-0.1181641,0.0283203-0.2402344,0.0419922-0.3642578,0.0419922
		c-0.2128906,0-0.3964844-0.0322266-0.5507813-0.0976563c-0.1542969-0.0664063-0.2939453-0.1875-0.4179688-0.3652344
		L75.1865234,15.8515625L75.1865234,15.8515625z"/>
	<path fill="#0378A9" d="M77.4003906,15.8515625c0.0810547,0.1025391,0.1708984,0.1845703,0.2685547,0.2451172
		c0.0976563,0.0595703,0.2207031,0.0898438,0.3701172,0.0898438c0.0634766,0,0.1279297-0.0068359,0.1943359-0.0214844
		c0.0654297-0.0136719,0.125-0.0371094,0.1777344-0.0683594c0.0537109-0.0322266,0.0957031-0.0722656,0.1279297-0.1201172
		s0.0478516-0.1054688,0.0478516-0.1728516s-0.0146484-0.1230469-0.0449219-0.1650391
		c-0.0302734-0.0429688-0.0703125-0.0791016-0.1201172-0.109375s-0.1064453-0.0537109-0.1699219-0.0712891
		c-0.0644531-0.0185547-0.1298828-0.0341797-0.1972656-0.0478516c-0.1171875-0.0253906-0.2285156-0.0537109-0.3349609-0.0859375
		c-0.1064453-0.03125-0.1992188-0.0732422-0.2792969-0.125C77.3603516,15.1484375,77.296875,15.0820313,77.2490234,15
		c-0.0488281-0.0820313-0.0722656-0.1865234-0.0722656-0.3144531c0-0.1201172,0.0263672-0.2265625,0.0800781-0.3183594
		c0.0527344-0.0927734,0.1240234-0.1689453,0.2128906-0.2294922s0.1875-0.1064453,0.2978516-0.1386719
		c0.1103516-0.03125,0.2236328-0.0478516,0.3408203-0.0478516c0.1767578,0,0.3408203,0.0361328,0.4921875,0.1064453
		c0.1503906,0.0712891,0.2685547,0.1865234,0.3535156,0.3466797l-0.3457031,0.2285156
		c-0.0527344-0.0888672-0.1230469-0.1601563-0.2099609-0.2158203c-0.0869141-0.0546875-0.1923828-0.0820313-0.3164063-0.0820313
		c-0.0576172,0-0.1152344,0.0068359-0.1728516,0.0214844c-0.0585938,0.0136719-0.1113281,0.0351563-0.1582031,0.0634766
		c-0.0458984,0.0283203-0.0839844,0.0644531-0.1132813,0.109375c-0.03125,0.0439453-0.0458984,0.0947266-0.0458984,0.1513672
		c0,0.0527344,0.0166016,0.0986328,0.0507813,0.1357422c0.0332031,0.0371094,0.0800781,0.0703125,0.1386719,0.0986328
		c0.0576172,0.0283203,0.125,0.0527344,0.2021484,0.0742188c0.0761719,0.0214844,0.1552734,0.0390625,0.2363281,0.0527344
		c0.1103516,0.0214844,0.2148438,0.0498047,0.3144531,0.0830078c0.0986328,0.0341797,0.1855469,0.0791016,0.2607422,0.1357422
		c0.0742188,0.0566406,0.1328125,0.1279297,0.1757813,0.2128906c0.0419922,0.0849609,0.0634766,0.1894531,0.0634766,0.3134766
		c0,0.1425781-0.0283203,0.2626953-0.0849609,0.3623047s-0.1328125,0.1796875-0.2265625,0.2421875
		s-0.2001953,0.1074219-0.3193359,0.1357422c-0.1181641,0.0283203-0.2402344,0.0419922-0.3642578,0.0419922
		c-0.2128906,0-0.3964844-0.0322266-0.5507813-0.0976563c-0.1542969-0.0664063-0.2939453-0.1875-0.4179688-0.3652344
		L77.4003906,15.8515625L77.4003906,15.8515625z"/>
	<path fill="#0378A9" d="M82.8496094,13.4033203c-0.0742188-0.1201172-0.1738281-0.2080078-0.2978516-0.2636719
		c-0.1240234-0.0546875-0.2539063-0.0820313-0.3886719-0.0820313c-0.0996094,0-0.1962891,0.0126953-0.2919922,0.0371094
		c-0.0966797,0.0244141-0.1826172,0.0625-0.2587891,0.1113281c-0.0761719,0.0498047-0.1376953,0.1162109-0.1835938,0.1972656
		c-0.0458984,0.0820313-0.0693359,0.1777344-0.0693359,0.2871094c0,0.0849609,0.0136719,0.1611328,0.0400391,0.2265625
		s0.0703125,0.125,0.1308594,0.1787109c0.0595703,0.0527344,0.1416016,0.1025391,0.2441406,0.1484375
		c0.1035156,0.0458984,0.2294922,0.0927734,0.3789063,0.1386719c0.1445313,0.0458984,0.2861328,0.0957031,0.4228516,0.1484375
		c0.1367188,0.0537109,0.2568359,0.1210938,0.3613281,0.2021484c0.1044922,0.0820313,0.1884766,0.1835938,0.25,0.3066406
		C83.25,15.1621094,83.28125,15.3154297,83.28125,15.5c0,0.1884766-0.0380859,0.3515625-0.1123047,0.4892578
		c-0.0742188,0.1386719-0.1728516,0.2529297-0.2949219,0.34375c-0.1230469,0.0908203-0.2636719,0.1582031-0.4228516,0.2021484
		c-0.1601563,0.0439453-0.3251953,0.0664063-0.4951172,0.0664063c-0.1103516,0-0.2197266-0.0097656-0.3300781-0.0292969
		s-0.2158203-0.0498047-0.3164063-0.0898438c-0.1015625-0.0410156-0.1962891-0.0947266-0.2851563-0.1601563
		s-0.1650391-0.1464844-0.2285156-0.2421875l0.3828125-0.3134766c0.0820313,0.1376953,0.1953125,0.2431641,0.3408203,0.3134766
		c0.1455078,0.0712891,0.2998047,0.1064453,0.4628906,0.1064453c0.0957031,0,0.1923828-0.0136719,0.2900391-0.0419922
		s0.1855469-0.0703125,0.2636719-0.1259766c0.078125-0.0546875,0.1416016-0.1230469,0.1914063-0.2041016
		c0.0498047-0.0820313,0.0742188-0.1757813,0.0742188-0.2822266c0-0.1171875-0.0195313-0.2119141-0.0585938-0.2851563
		c-0.0390625-0.0722656-0.0986328-0.1357422-0.1806641-0.1884766c-0.0820313-0.0537109-0.1845703-0.1015625-0.3085938-0.1435547
		c-0.1240234-0.0429688-0.2695313-0.0927734-0.4365234-0.1494141c-0.1347656-0.0419922-0.2587891-0.0908203-0.3730469-0.1464844
		c-0.1132813-0.0546875-0.2119141-0.1220703-0.2949219-0.2021484S81,14.2412109,80.953125,14.1298828
		c-0.0478516-0.1123047-0.0722656-0.2460938-0.0722656-0.4013672c0-0.1816406,0.0351563-0.3388672,0.1064453-0.4746094
		c0.0712891-0.1347656,0.1669922-0.2470703,0.2871094-0.3378906c0.1210938-0.0898438,0.2578125-0.1582031,0.4101563-0.2041016
		c0.1523438-0.046875,0.3115234-0.0693359,0.4785156-0.0693359c0.2128906,0,0.4072266,0.0332031,0.5830078,0.0986328
		s0.3330078,0.1796875,0.4707031,0.3427734L82.8496094,13.4033203L82.8496094,13.4033203z"/>
	<path fill="#0378A9" d="M85.7607422,15.0371094c-0.0068359-0.2128906-0.0761719-0.3828125-0.2070313-0.5107422
		c-0.1318359-0.1279297-0.3125-0.1914063-0.5429688-0.1914063s-0.4169922,0.0634766-0.5585938,0.1914063
		c-0.1425781,0.1279297-0.2275391,0.2978516-0.2558594,0.5107422H85.7607422L85.7607422,15.0371094z M86.1171875,16.0537109
		c-0.1484375,0.1914063-0.3125,0.3251953-0.4892578,0.4013672c-0.1777344,0.0761719-0.3837891,0.1142578-0.6171875,0.1142578
		c-0.1953125,0-0.3710938-0.0341797-0.5273438-0.1035156c-0.15625-0.0683594-0.2880859-0.1621094-0.3964844-0.2792969
		s-0.1914063-0.2548828-0.25-0.4150391c-0.0585938-0.1591797-0.0878906-0.3300781-0.0878906-0.5107422
		c0-0.1914063,0.0322266-0.3681641,0.0957031-0.5292969c0.0644531-0.1621094,0.1533203-0.2998047,0.2666016-0.4150391
		s0.2480469-0.2050781,0.4042969-0.2695313c0.15625-0.0634766,0.3261719-0.0957031,0.5107422-0.0957031
		c0.1738281,0,0.3339844,0.0292969,0.4794922,0.0878906c0.1445313,0.0585938,0.2705078,0.1435547,0.375,0.2558594
		c0.1044922,0.1113281,0.1855469,0.2480469,0.2421875,0.4091797c0.0566406,0.1621094,0.0849609,0.3457031,0.0849609,0.5517578
		v0.1328125h-2.0117188c0.0068359,0.1064453,0.0332031,0.2080078,0.0771484,0.3056641s0.1025391,0.1826172,0.1728516,0.2558594
		c0.0712891,0.0722656,0.1542969,0.1298828,0.25,0.1728516c0.0957031,0.0419922,0.2001953,0.0634766,0.3144531,0.0634766
		c0.1806641,0,0.3330078-0.0322266,0.4580078-0.0957031c0.1240234-0.0634766,0.2353516-0.1582031,0.3349609-0.2822266
		L86.1171875,16.0537109L86.1171875,16.0537109z"/>
	<path fill="#0378A9" d="M86.7988281,14.6064453c0-0.1142578-0.0039063-0.2207031-0.0107422-0.3193359
		c-0.0078125-0.0996094-0.0107422-0.1904297-0.0107422-0.2714844h0.3935547c0,0.0673828,0.0019531,0.1347656,0.0058594,0.2021484
		c0.0029297,0.0673828,0.0048828,0.1367188,0.0048828,0.2070313h0.0107422
		C87.2207031,14.3652344,87.2607422,14.3066406,87.3125,14.25c0.0507813-0.0566406,0.1123047-0.1074219,0.1835938-0.1523438
		c0.0703125-0.0439453,0.1503906-0.0800781,0.2392578-0.1064453s0.1845703-0.0400391,0.2871094-0.0400391
		c0.0283203,0,0.0566406,0.0019531,0.0849609,0.0058594c0.0283203,0.0029297,0.0566406,0.0107422,0.0859375,0.0214844
		l-0.0273438,0.4199219c-0.0712891-0.0214844-0.1455078-0.03125-0.2236328-0.03125
		c-0.2548828,0-0.4404297,0.0820313-0.5556641,0.2470703s-0.1728516,0.390625-0.1728516,0.6787109v1.2128906h-0.4150391V14.6064453
		L86.7988281,14.6064453z"/>
	<polygon fill="#0378A9" points="89.7519531,16.5058594 89.2949219,16.5058594 88.2783203,14.015625 88.7626953,14.015625 
		89.5390625,15.96875 89.5498047,15.96875 90.2900391,14.015625 90.7363281,14.015625 89.7519531,16.5058594 	"/>
	<path fill="#0378A9" d="M91.1679688,14.015625h0.4150391v2.4902344h-0.4150391V14.015625L91.1679688,14.015625z
		 M91.0722656,13.0419922c0-0.0820313,0.0292969-0.1533203,0.0878906-0.2128906
		c0.0576172-0.0605469,0.1298828-0.0908203,0.2158203-0.0908203c0.0849609,0,0.15625,0.0302734,0.2148438,0.0908203
		c0.0585938,0.0595703,0.0878906,0.1308594,0.0878906,0.2128906c0,0.0878906-0.0283203,0.1611328-0.0849609,0.2177734
		s-0.1298828,0.0849609-0.2177734,0.0849609c-0.0898438,0-0.1621094-0.0283203-0.21875-0.0849609
		S91.0722656,13.1298828,91.0722656,13.0419922L91.0722656,13.0419922z"/>
	<path fill="#0378A9" d="M94.1269531,14.6376953c-0.0888672-0.1064453-0.1845703-0.1835938-0.2880859-0.2314453
		c-0.1025391-0.0478516-0.2158203-0.0712891-0.3398438-0.0712891c-0.1386719,0-0.2617188,0.0234375-0.3671875,0.0712891
		c-0.1064453,0.0478516-0.1943359,0.1152344-0.2636719,0.2001953s-0.1220703,0.1835938-0.1572266,0.2949219
		c-0.0351563,0.1123047-0.0537109,0.2314453-0.0537109,0.359375s0.0205078,0.2470703,0.0615234,0.359375
		c0.0410156,0.1113281,0.0976563,0.2099609,0.1699219,0.2949219C92.9619141,16,93.0498047,16.0664063,93.1523438,16.1152344
		c0.1035156,0.0478516,0.21875,0.0712891,0.3466797,0.0712891c0.2724609,0,0.4833984-0.1025391,0.6328125-0.3085938
		l0.3085938,0.2929688c-0.1201172,0.1386719-0.2626953,0.2392578-0.4257813,0.3037109
		c-0.1630859,0.0634766-0.3349609,0.0947266-0.515625,0.0947266c-0.1923828,0-0.3671875-0.03125-0.5273438-0.0947266
		c-0.1601563-0.0644531-0.2949219-0.1542969-0.4072266-0.2714844c-0.1113281-0.1171875-0.1982422-0.2558594-0.2607422-0.4160156
		c-0.0615234-0.1591797-0.0927734-0.3349609-0.0927734-0.5263672c0-0.1884766,0.03125-0.3623047,0.0927734-0.5214844
		c0.0625-0.1601563,0.1503906-0.2978516,0.2636719-0.4150391s0.2490234-0.2089844,0.4072266-0.2744141
		c0.1572266-0.0654297,0.3320313-0.0986328,0.5244141-0.0986328c0.1845703,0,0.3583984,0.0322266,0.5244141,0.0957031
		c0.1640625,0.0644531,0.3085938,0.1640625,0.4326172,0.2988281L94.1269531,14.6376953L94.1269531,14.6376953z"/>
	<path fill="#0378A9" d="M96.734375,15.0371094c-0.0068359-0.2128906-0.0771484-0.3828125-0.2080078-0.5107422
		s-0.3125-0.1914063-0.5429688-0.1914063s-0.4160156,0.0634766-0.5585938,0.1914063
		c-0.1416016,0.1279297-0.2265625,0.2978516-0.2548828,0.5107422H96.734375L96.734375,15.0371094z M97.0908203,16.0537109
		c-0.1494141,0.1914063-0.3125,0.3251953-0.4892578,0.4013672c-0.1777344,0.0761719-0.3837891,0.1142578-0.6181641,0.1142578
		c-0.1953125,0-0.3701172-0.0341797-0.5263672-0.1035156c-0.15625-0.0683594-0.2880859-0.1621094-0.3964844-0.2792969
		s-0.1914063-0.2548828-0.25-0.4150391c-0.0585938-0.1591797-0.0878906-0.3300781-0.0878906-0.5107422
		c0-0.1914063,0.03125-0.3681641,0.0957031-0.5292969c0.0634766-0.1621094,0.1523438-0.2998047,0.265625-0.4150391
		c0.1142578-0.1152344,0.2490234-0.2050781,0.4052734-0.2695313C95.6445313,13.9833984,95.8154297,13.9511719,96,13.9511719
		c0.1738281,0,0.3330078,0.0292969,0.4785156,0.0878906s0.2705078,0.1435547,0.375,0.2558594
		c0.1054688,0.1113281,0.1855469,0.2480469,0.2421875,0.4091797c0.0576172,0.1621094,0.0849609,0.3457031,0.0849609,0.5517578
		v0.1328125h-2.0107422c0.0068359,0.1064453,0.0322266,0.2080078,0.0771484,0.3056641
		c0.0439453,0.0976563,0.1015625,0.1826172,0.1728516,0.2558594c0.0712891,0.0722656,0.1542969,0.1298828,0.25,0.1728516
		c0.0957031,0.0419922,0.2001953,0.0634766,0.3134766,0.0634766c0.1816406,0,0.3339844-0.0322266,0.4580078-0.0957031
		s0.2363281-0.1582031,0.3349609-0.2822266L97.0908203,16.0537109L97.0908203,16.0537109z"/>
	<path fill="#0378A9" d="M97.8251953,15.8515625c0.0820313,0.1025391,0.1708984,0.1845703,0.2685547,0.2451172
		c0.0976563,0.0595703,0.2207031,0.0898438,0.3701172,0.0898438c0.0644531,0,0.1289063-0.0068359,0.1943359-0.0214844
		c0.0654297-0.0136719,0.125-0.0371094,0.1777344-0.0683594c0.0537109-0.0322266,0.0966797-0.0722656,0.1279297-0.1201172
		c0.0322266-0.0478516,0.0478516-0.1054688,0.0478516-0.1728516s-0.0146484-0.1230469-0.0449219-0.1650391
		c-0.0302734-0.0429688-0.0703125-0.0791016-0.1201172-0.109375c-0.0488281-0.0302734-0.1064453-0.0537109-0.1699219-0.0712891
		c-0.0634766-0.0185547-0.1298828-0.0341797-0.1972656-0.0478516c-0.1171875-0.0253906-0.2285156-0.0537109-0.3349609-0.0859375
		c-0.1064453-0.03125-0.1992188-0.0732422-0.2792969-0.125C97.7851563,15.1484375,97.7216797,15.0820313,97.6738281,15
		s-0.0722656-0.1865234-0.0722656-0.3144531c0-0.1201172,0.0273438-0.2265625,0.0800781-0.3183594
		c0.0527344-0.0927734,0.1240234-0.1689453,0.2128906-0.2294922s0.1875-0.1064453,0.2978516-0.1386719
		c0.1103516-0.03125,0.2236328-0.0478516,0.3408203-0.0478516c0.1767578,0,0.3417969,0.0361328,0.4921875,0.1064453
		c0.1503906,0.0712891,0.2685547,0.1865234,0.3535156,0.3466797l-0.3457031,0.2285156
		c-0.0527344-0.0888672-0.1230469-0.1601563-0.2099609-0.2158203c-0.0869141-0.0546875-0.1923828-0.0820313-0.3164063-0.0820313
		c-0.0566406,0-0.1152344,0.0068359-0.1728516,0.0214844c-0.0585938,0.0136719-0.1113281,0.0351563-0.1572266,0.0634766
		c-0.046875,0.0283203-0.0849609,0.0644531-0.1142578,0.109375c-0.0302734,0.0439453-0.0458984,0.0947266-0.0458984,0.1513672
		c0,0.0527344,0.0175781,0.0986328,0.0507813,0.1357422s0.0800781,0.0703125,0.1386719,0.0986328
		s0.1259766,0.0527344,0.2021484,0.0742188s0.1552734,0.0390625,0.2363281,0.0527344
		c0.1103516,0.0214844,0.2148438,0.0498047,0.3144531,0.0830078c0.0986328,0.0341797,0.1865234,0.0791016,0.2607422,0.1357422
		s0.1328125,0.1279297,0.1757813,0.2128906c0.0419922,0.0849609,0.0634766,0.1894531,0.0634766,0.3134766
		c0,0.1425781-0.0283203,0.2626953-0.0849609,0.3623047s-0.1328125,0.1796875-0.2265625,0.2421875
		s-0.2001953,0.1074219-0.3193359,0.1357422s-0.2402344,0.0419922-0.3642578,0.0419922
		c-0.2128906,0-0.3964844-0.0322266-0.5507813-0.0976563c-0.1542969-0.0664063-0.2939453-0.1875-0.4179688-0.3652344
		L97.8251953,15.8515625L97.8251953,15.8515625z"/>
	<path fill="#006DA7" d="M5.1420898,2.2924805C5.0600586,2.2265625,4.9599609,2.1567383,4.859375,2.1264648L4.6987305,5.3769531
		l0.8081055-2.2470703C5.5825195,2.7871094,5.3925781,2.5043945,5.1420898,2.2924805L5.1420898,2.2924805z"/>
	<path fill="#006DA7" d="M3.8071289,2.0961914l0.4750977,3.2446289l0.4628906-3.2426758
		C4.4746094,1.9926758,4.1196289,1.9785156,3.8071289,2.0961914L3.8071289,2.0961914z"/>
	<path fill="#006DA7" d="M3.4140625,2.2890625c-0.25,0.2119141-0.4404297,0.4951172-0.3647461,0.8378906l0.8081055,2.2470703
		L3.6967773,2.1230469C3.5961914,2.1533203,3.4956055,2.2231445,3.4140625,2.2890625L3.4140625,2.2890625z"/>
	<path fill="#006DA7" d="M1.7866211,2.5976563c0.5385742,0.9467773,1.0888672,1.9609375,1.6274414,2.8691406
		c-0.1904297-0.7944336-0.3847656-2.1137695-0.659668-2.4848633C2.4360352,2.5361328,1.7866211,2.5976563,1.7866211,2.5976563
		L1.7866211,2.5976563z"/>
	<path fill="#006DA7" d="M0.8295898,3.0727539l2.2089844,2.5615234L1.6689453,2.6118164
		C1.3125,2.6245117,1.0112305,2.8071289,0.8295898,3.0727539L0.8295898,3.0727539z"/>
	<path fill="#006DA7" d="M5.4506836,3.7651367L5.0849609,5.5209961c0.4726563-0.8193359,0.9379883-1.6279297,1.3925781-2.4482422
		C6.0410156,3.1049805,5.5947266,3.2739258,5.4506836,3.7651367L5.4506836,3.7651367z"/>
	<g>
		<defs>
			<rect id="SVGID_1_" x="0.5410156" y="0.2177734" width="98.9179688" height="17.5654297"/>
		</defs>
		<clipPath id="SVGID_2_">
			<use xlink:href="#SVGID_1_"  overflow="visible"/>
		</clipPath>
		<path clip-path="url(#SVGID_2_)" fill="#006DA7" d="M6.6083984,3.0727539L5.4438477,5.6748047l2.0458984-2.2363281
			C7.2553711,3.1923828,6.9506836,3.078125,6.6083984,3.0727539L6.6083984,3.0727539z"/>
		<path clip-path="url(#SVGID_2_)" fill="#006DA7" d="M0.5444336,4.2314453
			c0.71875,0.5556641,1.4331055,1.1264648,2.1567383,1.6782227l-1.9428711-2.75
			C0.5791016,3.4702148,0.5263672,3.8325195,0.5444336,4.2314453L0.5444336,4.2314453z"/>
	</g>
	<path fill="#006DA7" d="M7.7407227,3.7573242C7.6967773,3.6708984,7.6459961,3.590332,7.5698242,3.5214844L5.8085938,5.9379883
		c0.6992188-0.5224609,1.3769531-1.0566406,2.0512695-1.5893555C7.8666992,4.1376953,7.8330078,3.9321289,7.7407227,3.7573242
		L7.7407227,3.7573242z"/>
	<path fill="#006DA7" d="M0.5493164,5.3491211l1.8798828,0.8686523C1.8071289,5.5957031,1.1772461,4.9912109,0.5488281,4.3779297
		L0.5493164,5.3491211L0.5493164,5.3491211z"/>
	<path fill="#006DA7" d="M7.8613281,5.4130859V4.5268555L6.0859375,6.2504883
		C6.6894531,5.9750977,7.2460938,5.7041016,7.8613281,5.4130859L7.8613281,5.4130859z"/>
	<path fill="#006DA7" d="M0.5444336,6.2109375c0.565918,0.125,1.1826172,0.284668,1.6943359,0.3945313L0.5444336,5.484375V6.2109375
		L0.5444336,6.2109375z"/>
	<path fill="#006DA7" d="M7.8613281,6.2626953V5.5810547C7.3295898,5.9199219,6.7773438,6.2714844,6.2841797,6.6225586
		L7.8613281,6.2626953L7.8613281,6.2626953z"/>
	<polygon fill="#006DA7" points="0.5444336,7.0610352 2.1987305,7.0610352 0.5444336,6.3510742 0.5444336,7.0610352 	"/>
	<path fill="#006DA7" d="M7.8613281,7.0610352V6.4150391c-0.543457,0.234375-1.0170898,0.4282227-1.5307617,0.6459961H7.8613281
		L7.8613281,7.0610352z"/>
	<path fill="#006DA7" d="M7.2890625,2.2114258C7.3076172,1.2192383,5.847168,1.2124023,5.8745117,2.2021484
		C5.8608398,3.1166992,7.3237305,3.168457,7.2890625,2.2114258L7.2890625,2.2114258z"/>
	<rect x="7.2885742" y="2.2060547" fill="#006DA7" width="0.0009766" height="0.0058594"/>
	<path fill="#006DA7" d="M2.5610352,1.6967773c0.046875-0.9960938-1.4960938-0.9560547-1.4365234,0.0019531
		C1.0717773,2.6875,2.6547852,2.7016602,2.5610352,1.6967773L2.5610352,1.6967773z"/>
	<path fill="#006DA7" d="M4.2836914,1.8886719c0.5722656,0.015625,0.8012695-0.40625,0.8168945-0.800293
		c0.0239258-0.6142578-0.3588867-0.8706055-0.8149414-0.8706055c-0.456543,0-0.8276367,0.2729492-0.8041992,0.8710938
		C3.4946289,1.4199219,3.6362305,1.8701172,4.2836914,1.8886719L4.2836914,1.8886719z"/>
	<polygon fill="#006DA7" points="16.4550781,7.0229492 17.1279297,7.0229492 17.1279297,3.1269531 16.4550781,3.1269531 
		16.4550781,7.0229492 	"/>
	<path fill="#006DA7" d="M13.9145508,5.3583984l0.5185547-1.6137695h0.015625l0.5390625,1.6137695H13.9145508L13.9145508,5.3583984z
		 M14.0693359,3.1269531l-1.1420898,3.3051758l-1.1132813-1.4038086l1.4838867-1.8999023h-0.7749023l-1.3769531,1.8491211V3.1269531
		h-0.6728516v3.8959961h0.6728516V5.1020508l1.4257813,1.921875h0.1508789l-0.0014648,0.003418h0.6586914l0.3608398-1.125h1.4282227
		l0.3745117,1.1206055h0.7026367L14.902832,3.1269531H14.0693359L14.0693359,3.1269531z"/>
	<path fill="#006DA7" d="M38.9555664,5.9467773l-0.675293-2.8222656h-1.1762695v3.8959961c0.324707,0,0.6601563,0,0.6601563,0
		V3.6987305l0.8549805,3.3217773c0,0,0.2797852,0,0.6743164,0c0.0087891,0,0.8500977-3.3168945,0.8500977-3.3168945v3.3168945
		h0.6557617V3.1240234h-1.1508789L38.9555664,5.9467773L38.9555664,5.9467773z"/>
	<path fill="#006DA7" d="M42.3339844,5.3530273l0.5175781-1.612793h0.0166016l0.5400391,1.612793H42.3339844L42.3339844,5.3530273z
		 M42.4882813,3.1220703l-1.3486328,3.8999023h0.6591797l0.3603516-1.1245117h1.4306641l0.3769531,1.1254883h0.703125
		l-1.3496094-3.9008789H42.4882813L42.4882813,3.1220703z"/>
	<path fill="#006DA7" d="M47.3994141,6.1308594l-1.5478516-3.0087891l-0.8867188,0.0039063l0.0019531,3.8945313
		c0.3027344,0,0.6357422,0,0.6357422,0V4.0839844l1.5263672,2.9365234h0.9189453V3.121582h-0.6484375V6.1308594
		L47.3994141,6.1308594z"/>
	<path fill="#006DA7" d="M60.1445313,6.4536133h-1.5986328V5.3530273h1.1826172V4.7880859l-1.1826172-0.0004883V3.6850586
		c0.1533203,0.003418,1.4628906,0,1.4628906,0V3.1206055c-0.3974609-0.0014648-2.1298828,0.0024414-2.1298828,0.0024414v3.8984375
		l2.2666016,0.0004883L60.1445313,6.4536133L60.1445313,6.4536133z"/>
	<path fill="#006DA7" d="M54.0136719,3.1206055l0.0009766,0.0009766h-0.1230469v3.0410156l-1.5488281-3.0390625h-0.8867188
		v3.3300781h-2.0419922V5.3530273h1.1826172V4.7880859l-1.1826172-0.0004883V3.6850586c0.1542969,0.003418,1.4619141,0,1.4619141,0
		V3.1206055c-0.3964844-0.0014648-2.1279297,0.0024414-2.1279297,0.0024414l-0.0009766,3.8984375l3.2949219-0.0009766l0,0
		c0.0332031,0,0.0527344,0,0.0527344,0V4.0527344l1.5253906,2.9677734h0.9199219V3.7128906c0.4169922,0,0.8359375,0,1.1816406,0
		v3.309082h0.6757813v-3.309082h1.1533203L57.546875,3.1206055H54.0136719L54.0136719,3.1206055z"/>
	<path fill="#006DA7" d="M34.5541992,4.793457V4.7700195v-1.074707h0.5683594c0.5083008,0,0.715332,0.2001953,0.715332,0.5415039
		c0,0.375-0.2036133,0.5566406-0.715332,0.5566406H34.5541992L34.5541992,4.793457z M36.1298828,5.0595703
		c0.2109375-0.184082,0.3706055-0.4692383,0.3706055-0.8295898c0-0.3608398-0.1523438-0.6396484-0.362793-0.8237305
		c-0.2353516-0.2050781-0.5668945-0.2822266-1.128418-0.2822266h-1.1303711v1.6459961h-0.0009766v1.6835938h-2.0571289V5.3530273
		h1.1835938V4.7880859l-1.1835938-0.0004883V3.6850586c0.1542969,0.003418,1.4633789,0,1.4633789,0V3.1206055
		c-0.3979492-0.0014648-2.1293945,0.0024414-2.1293945,0.0024414v3.8984375l3.3994141-0.0009766V5.3647461h0.3339844
		c0.3095703,0.4863281,0.965332,1.6616211,0.965332,1.6616211h0.8037109l-1.0473633-1.7167969
		C35.8305664,5.2597656,35.9951172,5.1772461,36.1298828,5.0595703L36.1298828,5.0595703z"/>
	<path fill="#006DA7" d="M23.9355469,4.793457V4.7700195v-1.074707h0.5678711c0.5083008,0,0.7158203,0.2001953,0.7158203,0.5415039
		c0,0.375-0.2036133,0.5566406-0.7158203,0.5566406H23.9355469L23.9355469,4.793457z M25.5117188,5.0595703
		c0.2104492-0.184082,0.3701172-0.4692383,0.3701172-0.8295898c0-0.3608398-0.152832-0.6396484-0.3632813-0.8237305
		c-0.2348633-0.2050781-0.5664063-0.2822266-1.1279297-0.2822266h-1.1303711v1.6459961h-0.0014648v1.6835938h-2.0566406V5.3530273
		h1.184082V4.7880859l-1.184082-0.0004883V3.6850586c0.1538086,0.003418,1.4633789,0,1.4633789,0V3.1206055
		c-0.3969727-0.0014648-2.1298828,0.0024414-2.1298828,0.0024414v3.8984375l3.3999023-0.0009766V5.3647461h0.3339844
		c0.3085938,0.4863281,0.9648438,1.6616211,0.9648438,1.6616211h0.8032227l-1.0473633-1.7167969
		C25.2124023,5.2597656,25.3764648,5.1772461,25.5117188,5.0595703L25.5117188,5.0595703z"/>
	<path fill="#006DA7" d="M29.359375,4.8486328h-0.5683594V3.6953125h0.5683594c0.5078125,0,0.7148438,0.2265625,0.7148438,0.5678711
		C30.0742188,4.6176758,29.8427734,4.8486328,29.359375,4.8486328L29.359375,4.8486328z M30.3745117,3.4169922
		c-0.2363281-0.2045898-0.5668945-0.2929688-1.1289063-0.2929688h-1.1303711v2.2954102l0,0v1.6035156h0.6757813V5.4194336h0.4545898
		c0.5620117,0,0.8881836-0.0986328,1.1235352-0.3037109c0.2104492-0.1826172,0.3666992-0.4887695,0.3666992-0.8491211
		C30.7358398,3.9057617,30.5854492,3.6005859,30.3745117,3.4169922L30.3745117,3.4169922z"/>
	<path fill="#006DA7" d="M19.0922852,4.7480469C18.5639648,4.5527344,18.3125,4.40625,18.3125,4.0996094
		c0-0.234375,0.2358398-0.5014648,0.7050781-0.5014648c0.3417969,0,0.6743164,0.1162109,0.8398438,0.2041016V3.2412109
		c-0.1723633-0.0839844-0.4970703-0.1816406-0.8251953-0.1816406c-0.8349609,0-1.409668,0.4716797-1.409668,1.1049805
		c0,0.5629883,0.4316406,0.9033203,1.0854492,1.1274414c0.5073242,0.1787109,0.7226563,0.3574219,0.7226563,0.6601563
		c0,0.3295898-0.2797852,0.5600586-0.7456055,0.5600586c-0.3691406,0-0.8261719-0.1225586-1.0639648-0.2832031v0.605957
		c0.2275391,0.1245117,0.6293945,0.2285156,1.0166016,0.2285156c1.0068359,0,1.4819336-0.5429688,1.4819336-1.1591797
		C20.1196289,5.3349609,19.7729492,5.0019531,19.0922852,4.7480469L19.0922852,4.7480469z"/>
	<path fill="#006DA7" d="M61.2373047,6.2783203V5.996582h0.1875c0.0957031,0,0.1982422,0.0214844,0.1982422,0.1337891
		c0,0.1386719-0.1035156,0.1479492-0.2197266,0.1479492H61.2373047L61.2373047,6.2783203z M61.2373047,6.3950195h0.1591797
		l0.2392578,0.3950195h0.1552734L61.53125,6.3891602c0.1337891-0.0175781,0.2363281-0.0878906,0.2363281-0.2504883
		c0-0.1796875-0.1064453-0.2587891-0.3212891-0.2587891h-0.3466797v0.9101563h0.1376953V6.3950195L61.2373047,6.3950195z
		 M61.4033203,7.1235352c0.4306641,0,0.7978516-0.3334961,0.7978516-0.7910156c0-0.4526367-0.3671875-0.7875977-0.7978516-0.7875977
		c-0.4326172,0-0.8017578,0.3349609-0.8017578,0.7875977C60.6015625,6.7900391,60.9707031,7.1235352,61.4033203,7.1235352
		L61.4033203,7.1235352z M60.7617188,6.3325195c0-0.3735352,0.28125-0.6552734,0.6416016-0.6552734
		c0.3583984,0,0.6396484,0.2817383,0.6396484,0.6552734c0,0.3793945-0.28125,0.6591797-0.6396484,0.6591797
		C61.0429688,6.9916992,60.7617188,6.7119141,60.7617188,6.3325195L60.7617188,6.3325195z"/>
</g>
</svg>
