<?xml version="1.0" encoding="utf-8"?>
<!-- Generator: Adobe Illustrator 24.3.0, SVG Export Plug-In . SVG Version: 6.00 Build 0)  -->
<svg version="1.1" id="Layer_1" xmlns="http://www.w3.org/2000/svg" xmlns:xlink="http://www.w3.org/1999/xlink" x="0px" y="0px"
	 viewBox="0 0 50 50" style="enable-background:new 0 0 50 50;" xml:space="preserve">
<style type="text/css">
	.st0{fill:#EBEBEF;}
	.st1{fill:#C1C6CF;}
	.st2{fill:#F15938;}
	.st3{fill:#DD3A26;}
	.st4{fill:#FFFFFF;}
</style>
<g>
	<path class="st0" d="M43.76,44.6c0,1.29-1.04,2.33-2.33,2.33H8.76c-1.29,0-2.33-1.04-2.33-2.33v-42c0-1.29,1.04-2.33,2.33-2.33
		h20.04c0.62,0,1.22,0.24,1.66,0.68l12.62,12.62c0.44,0.44,0.68,1.04,0.68,1.66L43.76,44.6L43.76,44.6z"/>
	<path class="st1" d="M43.76,44.6v2.33c0,1.29-1.04,2.33-2.33,2.33H8.76c-1.29,0-2.33-1.04-2.33-2.33V44.6
		c0,1.29,1.04,2.33,2.33,2.33h32.67C42.72,46.94,43.76,45.89,43.76,44.6z"/>
	<path class="st2" d="M1.76,25.94h46.67V37.6c0,1.29-1.04,2.33-2.33,2.33h-42c-1.29,0-2.33-1.04-2.33-2.33V25.94L1.76,25.94z"/>
	<path class="st3" d="M6.43,25.94v-4.67l-4.67,4.67H6.43z M43.76,25.94l0.05-4.67l4.64,4.67H43.76z"/>
	<path class="st4" d="M13.43,28.27h4.06c0.74-0.03,1.47,0.23,2.01,0.75c0.52,0.52,0.8,1.23,0.77,1.96c0.02,0.73-0.25,1.44-0.77,1.96
		c-0.56,0.53-1.31,0.81-2.08,0.77h-2.33v3.66h-1.66V28.27z M14.99,32.19h2.1c0.43,0.03,0.87-0.07,1.24-0.3
		c0.27-0.24,0.41-0.6,0.37-0.96c0-0.79-0.52-1.19-1.56-1.19h-2.15L14.99,32.19z M21.41,28.41h3.69c1.07-0.05,2.1,0.4,2.8,1.21
		c0.74,0.92,1.11,2.09,1.05,3.27c0.05,1.19-0.3,2.37-1,3.34c-0.67,0.89-1.73,1.41-2.85,1.38h-3.69V28.41z M22.97,36.02h2.12
		c0.67,0.02,1.32-0.28,1.73-0.82c0.45-0.67,0.66-1.46,0.61-2.26c0.08-0.83-0.15-1.66-0.65-2.33c-0.45-0.52-1.11-0.81-1.8-0.79h-2.01
		V36.02z M36.76,29.88h-4.83v2.17h4.83v1.49h-4.83v3.92h-1.56v-9.1h6.39V29.88z"/>
	<path class="st1" d="M43.76,15.23v0.33H31.14c-1.29,0-2.33-1.04-2.33-2.33V0.27c0.62,0,1.22,0.24,1.66,0.68l12.65,12.62
		C43.54,14.01,43.77,14.61,43.76,15.23z"/>
</g>
</svg>
